<svg width="87" height="85" viewBox="0 0 87 85" fill="none" xmlns="http://www.w3.org/2000/svg">
<g filter="url(#filter0_d_367_41)">
<path d="M10 7.47717L16.9384 3.49489L43.5 49.4948L71.5 3.49489L78 6.99475L53 49.9948L44.5 64.9948L28.4181 39.5673L10 7.47717Z" fill="#1F1000"/>
<path d="M42.0002 76.9432L29.5002 70.9435L11.9337 39.9435L11.9337 60.4432L4.56427 56.4432L4.56421 11.4432L42.0002 76.9432Z" fill="#1F1000"/>
<path d="M44.9399 76.9432L57.4399 70.9435L75.0064 39.9435V60.4432L82.3758 56.4432L82.3758 11.4432L44.9399 76.9432Z" fill="#1F1000"/>
<path d="M64.5 0L24.5 0.5L22 3.75L24.5 6.5H40V37.5L43.5 41.5L48 38V6.5H64.5L66.5 3.5L64.5 0Z" fill="#1F1000"/>
</g>
<defs>
<filter id="filter0_d_367_41" x="0.564209" y="0" width="85.8116" height="84.9432" filterUnits="userSpaceOnUse" color-interpolation-filters="sRGB">
<feFlood flood-opacity="0" result="BackgroundImageFix"/>
<feColorMatrix in="SourceAlpha" type="matrix" values="0 0 0 0 0 0 0 0 0 0 0 0 0 0 0 0 0 0 127 0" result="hardAlpha"/>
<feOffset dy="4"/>
<feGaussianBlur stdDeviation="2"/>
<feComposite in2="hardAlpha" operator="out"/>
<feColorMatrix type="matrix" values="0 0 0 0 0 0 0 0 0 0 0 0 0 0 0 0 0 0 0.25 0"/>
<feBlend mode="normal" in2="BackgroundImageFix" result="effect1_dropShadow_367_41"/>
<feBlend mode="normal" in="SourceGraphic" in2="effect1_dropShadow_367_41" result="shape"/>
</filter>
</defs>
</svg>
